<svg xmlns="http://www.w3.org/2000/svg" viewBox="0 0 320 320" fill="none" stroke="#a8987c" stroke-width="1.1" stroke-linecap="round" stroke-linejoin="round" color="#a8987c" xmlns:c2pa="http://c2pa.org/manifest"><metadata><c2pa:manifest>AAAWgmp1bWIAAAAeanVtZGMycGEAEQAQgAAAqgA4m3EDYzJwYQAAABZcanVtYgAAAEdqdW1kYzJtYQARABCAAACqADibcQN1cm46YzJwYToyMDU0MzZhYy01OTFiLTRmZTQtYWJkNy1kYjdhZWY3YTY5NjEAAAADl2p1bWIAAAApanVtZGMyYXMAEQAQgAAAqgA4m3EDYzJwYS5hc3NlcnRpb25zAAAAALxqdW1iAAAARGp1bWRjYm9yABEAEIAAAKoAOJtxE2MycGEuaW5ncmVkaWVudC52MwAAAAAYYzJzaLxLShrHJO60UVWNUwSaqLoAAABwY2JvcqNpZGM6Zm9ybWF0bWltYWdlL3N2Zyt4bWxqaW5zdGFuY2VJRHgseG1wOmlpZDo5ZGYzZmUwOS00MDczLTRiNWUtYjllOS0zYTA1YTFlNGRkNDBscmVsYXRpb25zaGlwaHBhcmVudE9mAAAB4mp1bWIAAABBanVtZGNib3IAEQAQgAAAqgA4m3ETYzJwYS5hY3Rpb25zLnYyAAAAABhjMnNofiCpg72wPqQ6RrzEZxIMwAAAAZljYm9yomdhY3Rpb25zgqJmYWN0aW9ua2MycGEub3BlbmVkanBhcmFtZXRlcnOha2luZ3JlZGllbnRzgaJjdXJseC1zZWxmI2p1bWJmPWMycGEuYXNzZXJ0aW9ucy9jMnBhLmluZ3JlZGllbnQudjNkaGFzaFggI2jRM9g+TblmNfSmUpUNTx8fATdoz+DAqCs9g6dv06SkZmFjdGlvbngdY29tLmFudGhyb3BpYy5jbGF1ZGUucHJvdmlkZWRqcGFyYW1ldGVyc6F4H2NvbS5hbnRocm9waWMub3JpZ2luLWNvbmZpZGVuY2VndW5rbm93bmtkZXNjcmlwdGlvbnhmQ2xhdWRlIHByb3ZpZGVkIHRoaXMgZmlsZSBhdCB0aGUgcmVxdWVzdCBvZiBhIHVzZXIgYW5kIG1heSBoYXZlIGNyZWF0ZWQgb3IgbW9kaWZpZWQgdGhlIGZpbGUgY29udGVudHMubXNvZnR3YXJlQWdlbnShZG5hbWVmQ2xhdWRlcmFsbEFjdGlvbnNJbmNsdWRlZPUAAADIanVtYgAAAEBqdW1kY2JvcgARABCAAACqADibcRNjMnBhLmhhc2guZGF0YQAAAAAYYzJzaCe8V4BsOdbCmZMPQSZr3fgAAACAY2JvcqVjYWxnZnNoYTI1NmNwYWRNAAAAAAAAAAAAAAAAAGRoYXNoWCC/flI2DXF3eZdGQvrL/oIUWuOsFh83UgfrjN6xYLi+9WRuYW1lbmp1bWJmIG1hbmlmZXN0amV4Y2x1c2lvbnOBomVzdGFydBjsZmxlbmd0aBkeBAAAAj5qdW1iAAAAJ2p1bWRjMmNsABEAEIAAAKoAOJtxA2MycGEuY2xhaW0udjIAAAACD2Nib3KlY2FsZ2ZzaGEyNTZpc2lnbmF0dXJleE1zZWxmI2p1bWJmPS9jMnBhL3VybjpjMnBhOjIwNTQzNmFjLTU5MWItNGZlNC1hYmQ3LWRiN2FlZjdhNjk2MS9jMnBhLnNpZ25hdHVyZWppbnN0YW5jZUlEeCx4bXA6aWlkOjA1YWRiZTcwLTBkOGItNDE0NS1iYTJmLTM5ZTlmODkwNTkwN3JjcmVhdGVkX2Fzc2VydGlvbnODomN1cmx4LXNlbGYjanVtYmY9YzJwYS5hc3NlcnRpb25zL2MycGEuaW5ncmVkaWVudC52M2RoYXNoWCAjaNEz2D5NuWY19KZSlQ1PHx8BN2jP4MCoKz2Dp2/TpKJjdXJseCpzZWxmI2p1bWJmPWMycGEuYXNzZXJ0aW9ucy9jMnBhLmFjdGlvbnMudjJkaGFzaFggOALOkusoTZ8ccohwhNAwBuqBOvM9NML3uaZlkt9DhDCiY3VybHgpc2VsZiNqdW1iZj1jMnBhLmFzc2VydGlvbnMvYzJwYS5oYXNoLmRhdGFkaGFzaFggXVbnC3uZJFZWVuZ2mYi4DIGI/SkTaParGzWYLgFjBOp0Y2xhaW1fZ2VuZXJhdG9yX2luZm+jZG5hbWVvQW50aHJvcGljIEZpbGVzZ3ZlcnNpb25lMS4wLjBrc3BlY1ZlcnNpb25lMi40LjAAABA4anVtYgAAAChqdW1kYzJjcwARABCAAACqADibcQNjMnBhLnNpZ25hdHVyZQAAABAIY2JvctKEWQISogEmGCFZAgowggIGMIIBjaADAgECAhRA5aAK7sI50L64g/oGQgU9Z1UTADAKBggqhkjOPQQDAzBJMRcwFQYDVQQKEw5BbnRocm9waWMsIFBCQzEuMCwGA1UEAxMlQW50aHJvcGljIENvbnRlbnQgQ3JlZGVudGlhbHMgUm9vdCBDQTAeFw0yNjA4MDcxODQzNTZaFw0yODA4MDYxOTQzNTZaMEQxFzAVBgNVBAoTDkFudGhyb3BpYywgUEJDMSkwJwYDVQQDEyBBbnRocm9waWMgQ2xhdWRlIENvbnRlbnQgU2lnbmluZzBZMBMGByqGSM49AgEGCCqGSM49AwEHA0IABJh6CmvLUBgFFNU0vUKlOVtE6djd17L5SuwX0LemFisBM3dkd/3cyjxFA3Qo5S46fX0/ihY0VZ7mfb9KF703t5OjWDBWMA4GA1UdDwEB/wQEAwIHgDAVBgNVHSUEDjAMBgorBgEEAYPoXgIBMAwGA1UdEwEB/wQCMAAwHwYDVR0jBBgwFoAUzlHiBIFOZFsj+OPEz5o+nMHXXMIwCgYIKoZIzj0EAwMDZwAwZAIwMXMdFJ4BetLLVY7ORuE9noqbbAZOZn/aArXyTwFAZfKrPzxF2vPoJNf1+UCdg1XGAjBwX1zd9WGqYkqmL5SFqw1QySjr1zJfpJM9+1rdDwSPLMOPOjKuiXjoU/pUUeG9RwmhY3BhZFkNngAAAAAAAAAAAAAAAAAAAAAAAAAAAAAAAAAAAAAAAAAAAAAAAAAAAAAAAAAAAAAAAAAAAAAAAAAAAAAAAAAAAAAAAAAAAAAAAAAAAAAAAAAAAAAAAAAAAAAAAAAAAAAAAAAAAAAAAAAAAAAAAAAAAAAAAAAAAAAAAAAAAAAAAAAAAAAAAAAAAAAAAAAAAAAAAAAAAAAAAAAAAAAAAAAAAAAAAAAAAAAAAAAAAAAAAAAAAAAAAAAAAAAAAAAAAAAAAAAAAAAAAAAAAAAAAAAAAAAAAAAAAAAAAAAAAAAAAAAAAAAAAAAAAAAAAAAAAAAAAAAAAAAAAAAAAAAAAAAAAAAAAAAAAAAAAAAAAAAAAAAAAAAAAAAAAAAAAAAAAAAAAAAAAAAAAAAAAAAAAAAAAAAAAAAAAAAAAAAAAAAAAAAAAAAAAAAAAAAAAAAAAAAAAAAAAAAAAAAAAAAAAAAAAAAAAAAAAAAAAAAAAAAAAAAAAAAAAAAAAAAAAAAAAAAAAAAAAAAAAAAAAAAAAAAAAAAAAAAAAAAAAAAAAAAAAAAAAAAAAAAAAAAAAAAAAAAAAAAAAAAAAAAAAAAAAAAAAAAAAAAAAAAAAAAAAAAAAAAAAAAAAAAAAAAAAAAAAAAAAAAAAAAAAAAAAAAAAAAAAAAAAAAAAAAAAAAAAAAAAAAAAAAAAAAAAAAAAAAAAAAAAAAAAAAAAAAAAAAAAAAAAAAAAAAAAAAAAAAAAAAAAAAAAAAAAAAAAAAAAAAAAAAAAAAAAAAAAAAAAAAAAAAAAAAAAAAAAAAAAAAAAAAAAAAAAAAAAAAAAAAAAAAAAAAAAAAAAAAAAAAAAAAAAAAAAAAAAAAAAAAAAAAAAAAAAAAAAAAAAAAAAAAAAAAAAAAAAAAAAAAAAAAAAAAAAAAAAAAAAAAAAAAAAAAAAAAAAAAAAAAAAAAAAAAAAAAAAAAAAAAAAAAAAAAAAAAAAAAAAAAAAAAAAAAAAAAAAAAAAAAAAAAAAAAAAAAAAAAAAAAAAAAAAAAAAAAAAAAAAAAAAAAAAAAAAAAAAAAAAAAAAAAAAAAAAAAAAAAAAAAAAAAAAAAAAAAAAAAAAAAAAAAAAAAAAAAAAAAAAAAAAAAAAAAAAAAAAAAAAAAAAAAAAAAAAAAAAAAAAAAAAAAAAAAAAAAAAAAAAAAAAAAAAAAAAAAAAAAAAAAAAAAAAAAAAAAAAAAAAAAAAAAAAAAAAAAAAAAAAAAAAAAAAAAAAAAAAAAAAAAAAAAAAAAAAAAAAAAAAAAAAAAAAAAAAAAAAAAAAAAAAAAAAAAAAAAAAAAAAAAAAAAAAAAAAAAAAAAAAAAAAAAAAAAAAAAAAAAAAAAAAAAAAAAAAAAAAAAAAAAAAAAAAAAAAAAAAAAAAAAAAAAAAAAAAAAAAAAAAAAAAAAAAAAAAAAAAAAAAAAAAAAAAAAAAAAAAAAAAAAAAAAAAAAAAAAAAAAAAAAAAAAAAAAAAAAAAAAAAAAAAAAAAAAAAAAAAAAAAAAAAAAAAAAAAAAAAAAAAAAAAAAAAAAAAAAAAAAAAAAAAAAAAAAAAAAAAAAAAAAAAAAAAAAAAAAAAAAAAAAAAAAAAAAAAAAAAAAAAAAAAAAAAAAAAAAAAAAAAAAAAAAAAAAAAAAAAAAAAAAAAAAAAAAAAAAAAAAAAAAAAAAAAAAAAAAAAAAAAAAAAAAAAAAAAAAAAAAAAAAAAAAAAAAAAAAAAAAAAAAAAAAAAAAAAAAAAAAAAAAAAAAAAAAAAAAAAAAAAAAAAAAAAAAAAAAAAAAAAAAAAAAAAAAAAAAAAAAAAAAAAAAAAAAAAAAAAAAAAAAAAAAAAAAAAAAAAAAAAAAAAAAAAAAAAAAAAAAAAAAAAAAAAAAAAAAAAAAAAAAAAAAAAAAAAAAAAAAAAAAAAAAAAAAAAAAAAAAAAAAAAAAAAAAAAAAAAAAAAAAAAAAAAAAAAAAAAAAAAAAAAAAAAAAAAAAAAAAAAAAAAAAAAAAAAAAAAAAAAAAAAAAAAAAAAAAAAAAAAAAAAAAAAAAAAAAAAAAAAAAAAAAAAAAAAAAAAAAAAAAAAAAAAAAAAAAAAAAAAAAAAAAAAAAAAAAAAAAAAAAAAAAAAAAAAAAAAAAAAAAAAAAAAAAAAAAAAAAAAAAAAAAAAAAAAAAAAAAAAAAAAAAAAAAAAAAAAAAAAAAAAAAAAAAAAAAAAAAAAAAAAAAAAAAAAAAAAAAAAAAAAAAAAAAAAAAAAAAAAAAAAAAAAAAAAAAAAAAAAAAAAAAAAAAAAAAAAAAAAAAAAAAAAAAAAAAAAAAAAAAAAAAAAAAAAAAAAAAAAAAAAAAAAAAAAAAAAAAAAAAAAAAAAAAAAAAAAAAAAAAAAAAAAAAAAAAAAAAAAAAAAAAAAAAAAAAAAAAAAAAAAAAAAAAAAAAAAAAAAAAAAAAAAAAAAAAAAAAAAAAAAAAAAAAAAAAAAAAAAAAAAAAAAAAAAAAAAAAAAAAAAAAAAAAAAAAAAAAAAAAAAAAAAAAAAAAAAAAAAAAAAAAAAAAAAAAAAAAAAAAAAAAAAAAAAAAAAAAAAAAAAAAAAAAAAAAAAAAAAAAAAAAAAAAAAAAAAAAAAAAAAAAAAAAAAAAAAAAAAAAAAAAAAAAAAAAAAAAAAAAAAAAAAAAAAAAAAAAAAAAAAAAAAAAAAAAAAAAAAAAAAAAAAAAAAAAAAAAAAAAAAAAAAAAAAAAAAAAAAAAAAAAAAAAAAAAAAAAAAAAAAAAAAAAAAAAAAAAAAAAAAAAAAAAAAAAAAAAAAAAAAAAAAAAAAAAAAAAAAAAAAAAAAAAAAAAAAAAAAAAAAAAAAAAAAAAAAAAAAAAAAAAAAAAAAAAAAAAAAAAAAAAAAAAAAAAAAAAAAAAAAAAAAAAAAAAAAAAAAAAAAAAAAAAAAAAAAAAAAAAAAAAAAAAAAAAAAAAAAAAAAAAAAAAAAAAAAAAAAAAAAAAAAAAAAAAAAAAAAAAAAAAAAAAAAAAAAAAAAAAAAAAAAAAAAAAAAAAAAAAAAAAAAAAAAAAAAAAAAAAAAAAAAAAAAAAAAAAAAAAAAAAAAAAAAAAAAAAAAAAAAAAAAAAAAAAAAAAAAAAAAAAAAAAAAAAAAAAAAAAAAAAAAAAAAAAAAAAAAAAAAAAAAAAAAAAAAAAAAAAAAAAAAAAAAAAAAAAAAAAAAAAAAAAAAAAAAAAAAAAAAAAAAAAAAAAAAAAAAAAAAAAAAAAAAAAAAAAAAAAAAAAAAAAAAAAAAAAAAAAAAAAAAAAAAAAAAAAAAAAAAAAAAAAAAAAAAAAAAAAAAAAAAAAAAAAAAAAAAAAAAAAAAAAAAAAAAAAAAAAAAAAAAAAAAAAAAAAAAAAAAAAAAAAAAAAAAAAAAAAAAAAAAAAAAAAAAAAAAAAAAAAAAAAAAAAAAAAAAAAAAAAAAAAAAAAAAAAAAAAAAAAAAAAAAAAAAAAAAAAAAAAAAAAAAAAAAAAAAAAAAAAAAAAAAAAAAAAAAAAAAAAAAAAAAAAAAAAAAAAAAAAAAAAAAAAAAAAAAAAAAAAAAAAAAAAAAAAAAAAAAAAAAAAAAAAAAAAAAAAAAAAAAAAAAAAAAAAAAAAAAAAAAAAAAAAAAAAAAAAAAAAAAAAAAAAAAAAAAAAAAAAAAAAAAAAAAAAAAAAAAAAAAAAAAAAAAAAAAAAAAAAAAAAAAAAAAAAAAAAAAAAAAAAAAAAAAAAAAAAAAAAAAAAAAAAAAAAAAAAAAAAAAAAAAAAAAAAAAAAAAAAAAAAAAAAAAAAAAAAAAAAAAAAAAAAAAAAAAAAAAAAAAAAAAAAAAAAAAAAAAAAAAAAAAAAAAAAAAAAAAAAAAAAAAAAAAAAAAAAAAAAAAAAAAAAAAAAAAAAAAAAAAAAAAAAAAAAAAAAAAAAAAAAAAAAAAAAAAAAAAAAAAAAAAAAAAAAAAAAAAAAAAAAAAAAAAAAAAAAAAAAAAAAAAAAAAAAAAAAAAAAAAAAAAAAAAAAAAAAAAAAAAAAAAAAAAAAAAAAAAAAAAAAAAAAAAAAAAAAAAAAAAAAAAAAAAAAAAAAAAAAAAAAAAAAAAAAAAAAAAAAAAAAAAAAAAAAAAAAAAAAAAAAAAAAAAAAAAAAAAAAAAAAAAAAAAAAAAAAAAAAAAAAAAAAAAAAAAAAAAAAAAAAAAAAAAAAAAAAAAAAAAAAAAAAAAAAAAAAAAAAAAAAAAAAAAAAAAAAAAAAAAAAAAAAAAAAAAAAAAAAAAAAAAAAAAAAAAAAAAAAAAAAAAAAAAAAAAAAAAAAAAAAAAAAAAAAAAAAAAAAAAAAAAAAAAAAAAAAAAAAAAAAAAAAAAAAAAAAAAAAAAAAAAAAAAAAAAAAAAAAAAAAAAAAAAAAAAAAAAAAAAAAAAAAAAAAAAAAAAAAAAAAAAAAAAAAAAAAAAAAAAAAAAAAAAAAAAAAAAAAAAAAAAAAAAAAAAAAAAAAAAAAAAAAAAAAAAAAAAAAAAAAAAAAAAAAAAAAAAAAAAAAAAAAAAAAAAAAAAAAAAAAAAAAAAAAAAAAAAAAAAAAAAAAAAAAAAAAAAAAAAAAAAAAAAAAAAAAAAAAAAAAAAAAAAAAAAAAAAAAAAAAAAAAAAAAAAAAAAAAAAPZYQFvOE60NaeqbCdnMOFs330dY2kHl9ZXN0e1qcFIUmBaDXxZT7/5uN6MTZeVpHp0MPWrfnmJPqEMHUOGcCA6kF8w=</c2pa:manifest></metadata><path d="M10 300C90 260 180 200 300 120" stroke-width="1.3"/><path d="M39.3 284.7C51.0 278.2 67.3 283.8 76.0 295.1C62.8 299.7 45.9 296.4 39.3 284.7Z"/><path d="M39.3 284.7Q57.4 290.6 72.3 294.0" stroke-width=".8"/><path d="M50.3 287.8L56.2 283.6M50.3 287.8L53.1 294.5" stroke-width=".6"/><path d="M57.6 289.9L63.6 285.7M57.6 289.9L60.5 296.6" stroke-width=".6"/><path d="M64.9 292.0L70.9 287.8M64.9 292.0L67.8 298.7" stroke-width=".6"/><path d="M39.3 284.7C32.0 273.1 36.6 255.8 47.4 245.8C52.8 259.1 50.6 276.9 39.3 284.7Z"/><path d="M39.3 284.7Q44.1 265.4 46.6 249.7" stroke-width=".8"/><path d="M41.7 273.1L37.1 267.2M41.7 273.1L48.2 269.6" stroke-width=".6"/><path d="M43.3 265.3L38.7 259.5M43.3 265.3L49.8 261.8" stroke-width=".6"/><path d="M44.9 257.5L40.4 251.7M44.9 257.5L51.5 254.0" stroke-width=".6"/><path d="M60.6 272.9C72.2 266.0 89.4 270.5 99.4 280.8C86.2 286.0 68.5 283.8 60.6 272.9Z"/><path d="M60.6 272.9Q79.9 277.6 95.5 280.0" stroke-width=".8"/><path d="M72.3 275.3L78.0 270.9M72.3 275.3L75.8 281.6" stroke-width=".6"/><path d="M80.0 276.9L85.8 272.5M80.0 276.9L83.6 283.2" stroke-width=".6"/><path d="M87.8 278.5L93.5 274.1M87.8 278.5L91.4 284.7" stroke-width=".6"/><path d="M60.6 272.9C56.4 259.9 64.6 243.4 77.0 235.5C79.2 249.8 73.0 267.2 60.6 272.9Z"/><path d="M60.6 272.9Q69.5 254.5 75.4 239.2" stroke-width=".8"/><path d="M65.6 261.7L62.5 255.0M65.6 261.7L72.5 259.4" stroke-width=".6"/><path d="M68.8 254.2L65.8 247.5M68.8 254.2L75.8 251.9" stroke-width=".6"/><path d="M72.1 246.7L69.1 240.0M72.1 246.7L79.1 244.4" stroke-width=".6"/><path d="M82.6 260.2C93.9 253.8 110.6 258.4 120.1 268.6C107.2 273.3 90.1 270.7 82.6 260.2Z"/><path d="M82.6 260.2Q101.2 265.0 116.4 267.7" stroke-width=".8"/><path d="M93.9 262.7L99.5 258.6M93.9 262.7L97.2 268.8" stroke-width=".6"/><path d="M101.4 264.4L107.0 260.3M101.4 264.4L104.7 270.5" stroke-width=".6"/><path d="M108.9 266.0L114.5 262.0M108.9 266.0L112.2 272.1" stroke-width=".6"/><path d="M82.6 260.2C77.1 249.5 82.7 235.7 93.3 228.9C97.1 240.7 93.5 255.2 82.6 260.2Z"/><path d="M82.6 260.2Q88.6 244.8 92.3 232.0" stroke-width=".8"/><path d="M85.8 250.8L82.2 245.3M85.8 250.8L92.0 248.7" stroke-width=".6"/><path d="M88.0 244.5L84.3 239.1M88.0 244.5L94.2 242.5" stroke-width=".6"/><path d="M90.1 238.3L86.5 232.8M90.1 238.3L96.3 236.2" stroke-width=".6"/><path d="M105.3 246.6C116.9 241.4 133.0 247.3 141.8 257.8C128.8 261.2 112.0 257.3 105.3 246.6Z"/><path d="M105.3 246.6Q123.3 252.8 138.1 256.7" stroke-width=".8"/><path d="M116.2 249.9L122.1 246.5M116.2 249.9L119.1 256.1" stroke-width=".6"/><path d="M123.5 252.2L129.4 248.8M123.5 252.2L126.5 258.3" stroke-width=".6"/><path d="M130.8 254.4L136.7 251.0M130.8 254.4L133.8 260.6" stroke-width=".6"/><path d="M105.3 246.6C100.9 234.6 107.8 218.8 118.9 210.7C121.4 224.0 116.5 240.6 105.3 246.6Z"/><path d="M105.3 246.6Q112.7 228.9 117.6 214.3" stroke-width=".8"/><path d="M109.4 235.8L106.3 229.7M109.4 235.8L115.7 233.3" stroke-width=".6"/><path d="M112.1 228.6L109.1 222.5M112.1 228.6L118.4 226.1" stroke-width=".6"/><path d="M114.8 221.5L111.8 215.4M114.8 221.5L121.1 218.9" stroke-width=".6"/><path d="M128.7 232.1C138.2 225.6 152.8 228.9 161.4 237.6C150.5 242.6 135.6 241.3 128.7 232.1Z"/><path d="M128.7 232.1Q144.9 235.5 158.1 237.0" stroke-width=".8"/><path d="M138.5 233.7L143.2 229.7M138.5 233.7L141.6 239.1" stroke-width=".6"/><path d="M145.0 234.8L149.7 230.8M145.0 234.8L148.2 240.2" stroke-width=".6"/><path d="M151.6 235.9L156.3 231.9M151.6 235.9L154.7 241.3" stroke-width=".6"/><path d="M128.7 232.1C122.3 222.1 125.8 206.6 134.5 197.4C139.4 208.9 138.0 224.7 128.7 232.1Z"/><path d="M128.7 232.1Q132.2 214.9 134.0 200.9" stroke-width=".8"/><path d="M130.4 221.7L126.5 216.7M130.4 221.7L135.8 218.3" stroke-width=".6"/><path d="M131.6 214.8L127.6 209.8M131.6 214.8L137.0 211.4" stroke-width=".6"/><path d="M132.8 207.8L128.8 202.9M132.8 207.8L138.2 204.4" stroke-width=".6"/><path d="M152.9 216.8C160.7 209.8 173.6 211.6 181.6 219.0C172.5 224.7 159.5 224.9 152.9 216.8Z"/><path d="M152.9 216.8Q167.3 218.5 178.8 218.8" stroke-width=".8"/><path d="M161.6 217.4L165.4 213.2M161.6 217.4L164.7 222.2" stroke-width=".6"/><path d="M167.3 217.9L171.1 213.6M167.3 217.9L170.4 222.7" stroke-width=".6"/><path d="M173.0 218.3L176.8 214.1M173.0 218.3L176.1 223.1" stroke-width=".6"/><path d="M152.9 216.8C146.9 208.1 150.0 195.2 158.3 187.7C163.0 197.6 161.7 210.9 152.9 216.8Z"/><path d="M152.9 216.8Q156.2 202.3 157.8 190.6" stroke-width=".8"/><path d="M154.6 208.1L150.8 203.7M154.6 208.1L159.7 205.4" stroke-width=".6"/><path d="M155.6 202.2L151.8 197.9M155.6 202.2L160.7 199.6" stroke-width=".6"/><path d="M156.7 196.4L152.9 192.1M156.7 196.4L161.8 193.8" stroke-width=".6"/><path d="M178.1 200.6C185.8 194.4 197.9 196.8 205.1 204.3C196.2 209.2 183.9 208.6 178.1 200.6Z"/><path d="M178.1 200.6Q191.5 203.0 202.4 203.9" stroke-width=".8"/><path d="M186.2 201.7L190.0 197.9M186.2 201.7L188.8 206.4" stroke-width=".6"/><path d="M191.6 202.4L195.4 198.6M191.6 202.4L194.2 207.1" stroke-width=".6"/><path d="M197.0 203.2L200.8 199.4M197.0 203.2L199.6 207.9" stroke-width=".6"/><path d="M178.1 200.6C171.9 192.7 174.2 180.3 181.6 172.8C186.6 181.9 186.1 194.5 178.1 200.6Z"/><path d="M178.1 200.6Q180.4 186.8 181.3 175.6" stroke-width=".8"/><path d="M179.2 192.3L175.3 188.4M179.2 192.3L183.8 189.5" stroke-width=".6"/><path d="M179.9 186.7L176.0 182.8M179.9 186.7L184.5 183.9" stroke-width=".6"/><path d="M180.6 181.1L176.7 177.3M180.6 181.1L185.2 178.4" stroke-width=".6"/><path d="M204.2 183.5C211.7 177.3 224.3 178.9 232.3 185.6C223.4 190.7 210.7 190.8 204.2 183.5Z"/><path d="M204.2 183.5Q218.2 185.1 229.5 185.4" stroke-width=".8"/><path d="M212.6 184.1L216.3 180.3M212.6 184.1L215.7 188.5" stroke-width=".6"/><path d="M218.2 184.6L221.9 180.7M218.2 184.6L221.3 188.9" stroke-width=".6"/><path d="M223.8 185.0L227.5 181.2M223.8 185.0L226.9 189.3" stroke-width=".6"/><path d="M204.2 183.5C198.5 174.8 201.0 160.6 208.3 151.9C212.8 162.1 212.0 176.5 204.2 183.5Z"/><path d="M204.2 183.5Q206.8 167.8 207.9 155.1" stroke-width=".8"/><path d="M205.5 174.0L201.9 169.7M205.5 174.0L210.0 170.8" stroke-width=".6"/><path d="M206.3 167.7L202.7 163.4M206.3 167.7L210.8 164.4" stroke-width=".6"/><path d="M207.1 161.4L203.5 157.1M207.1 161.4L211.6 158.1" stroke-width=".6"/><path d="M231.4 165.6C238.8 160.5 249.7 163.3 256.0 170.4C247.6 174.3 236.3 173.1 231.4 165.6Z"/><path d="M231.4 165.6Q243.6 168.5 253.5 169.9" stroke-width=".8"/><path d="M238.8 167.0L242.5 163.8M238.8 167.0L241.0 171.4" stroke-width=".6"/><path d="M243.7 168.0L247.4 164.8M243.7 168.0L245.9 172.3" stroke-width=".6"/><path d="M248.6 169.0L252.3 165.8M248.6 169.0L250.8 173.3" stroke-width=".6"/><path d="M231.4 165.6C226.3 158.0 229.0 146.4 236.1 139.6C240.0 148.4 238.9 160.2 231.4 165.6Z"/><path d="M231.4 165.6Q234.3 152.7 235.6 142.2" stroke-width=".8"/><path d="M232.8 157.8L229.6 154.0M232.8 157.8L237.2 155.4" stroke-width=".6"/><path d="M233.8 152.6L230.5 148.8M233.8 152.6L238.1 150.2" stroke-width=".6"/><path d="M234.7 147.4L231.5 143.6M234.7 147.4L239.0 145.0" stroke-width=".6"/><path d="M259.8 146.8C266.3 141.6 276.6 143.6 282.9 149.8C275.3 154.0 264.8 153.5 259.8 146.8Z"/><path d="M259.8 146.8Q271.3 148.8 280.6 149.5" stroke-width=".8"/><path d="M266.7 147.7L269.9 144.5M266.7 147.7L269.0 151.7" stroke-width=".6"/><path d="M271.3 148.3L274.6 145.1M271.3 148.3L273.6 152.3" stroke-width=".6"/><path d="M275.9 148.9L279.2 145.7M275.9 148.9L278.2 152.9" stroke-width=".6"/><path d="M259.8 146.8C256.3 138.0 261.0 125.8 268.8 119.2C271.0 129.1 267.7 141.8 259.8 146.8Z"/><path d="M259.8 146.8Q264.8 133.1 267.9 121.9" stroke-width=".8"/><path d="M262.5 138.5L260.1 134.1M262.5 138.5L267.0 136.3" stroke-width=".6"/><path d="M264.3 133.0L262.0 128.6M264.3 133.0L268.8 130.8" stroke-width=".6"/><path d="M266.1 127.5L263.8 123.0M266.1 127.5L270.6 125.3" stroke-width=".6"/><path d="M289.3 127.1C296.1 122.5 306.7 124.7 313.1 130.8C305.2 134.5 294.4 133.6 289.3 127.1Z"/><path d="M289.3 127.1Q301.1 129.4 310.7 130.5" stroke-width=".8"/><path d="M296.4 128.3L299.8 125.4M296.4 128.3L298.8 132.0" stroke-width=".6"/><path d="M301.2 129.0L304.5 126.1M301.2 129.0L303.5 132.8" stroke-width=".6"/><path d="M305.9 129.7L309.3 126.8M305.9 129.7L308.3 133.5" stroke-width=".6"/><path d="M289.3 127.1C284.4 121.0 286.3 111.4 292.2 105.6C296.0 112.7 295.6 122.5 289.3 127.1Z"/><path d="M289.3 127.1Q291.2 116.4 291.9 107.8" stroke-width=".8"/><path d="M290.1 120.7L287.1 117.7M290.1 120.7L293.8 118.6" stroke-width=".6"/><path d="M290.7 116.4L287.7 113.4M290.7 116.4L294.4 114.3" stroke-width=".6"/><path d="M291.3 112.1L288.3 109.1M291.3 112.1L295.0 110.0" stroke-width=".6"/><path d="M300.0 120.0C301.8 112.8 310.3 107.7 318.3 107.8C315.2 115.0 307.3 121.1 300.0 120.0Z"/><path d="M300.0 120.0Q309.4 114.2 316.5 109.0" stroke-width=".8"/><path d="M305.5 116.3L306.0 112.4M305.5 116.3L309.4 117.4" stroke-width=".6"/><path d="M309.2 113.9L309.7 109.9M309.2 113.9L313.0 114.9" stroke-width=".6"/><path d="M312.8 111.5L313.3 107.5M312.8 111.5L316.7 112.5" stroke-width=".6"/><path d="M150 220C170 160 190 110 180 40" stroke-width="1.3"/><path d="M157.1 198.8C147.1 195.6 141.8 183.4 144.0 172.4C153.7 177.4 160.6 188.8 157.1 198.8Z"/><path d="M157.1 198.8Q151.1 185.3 145.3 175.0" stroke-width=".8"/><path d="M153.2 190.9L147.6 189.7M153.2 190.9L155.7 185.7" stroke-width=".6"/><path d="M150.6 185.6L144.9 184.5M150.6 185.6L153.1 180.4" stroke-width=".6"/><path d="M147.9 180.3L142.3 179.2M147.9 180.3L150.4 175.1" stroke-width=".6"/><path d="M166.7 169.6C169.6 160.5 180.6 156.0 190.4 158.3C185.8 167.0 175.6 173.1 166.7 169.6Z"/><path d="M166.7 169.6Q178.8 164.5 188.1 159.4" stroke-width=".8"/><path d="M173.8 166.2L174.9 161.1M173.8 166.2L178.4 168.6" stroke-width=".6"/><path d="M178.6 164.0L179.6 158.8M178.6 164.0L183.2 166.4" stroke-width=".6"/><path d="M183.3 161.7L184.4 156.6M183.3 161.7L188.0 164.1" stroke-width=".6"/><path d="M174.7 140.6C165.2 138.4 158.0 127.4 157.4 116.9C166.9 120.9 175.5 131.0 174.7 140.6Z"/><path d="M174.7 140.6Q166.5 128.5 159.1 119.3" stroke-width=".8"/><path d="M169.5 133.5L164.3 132.9M169.5 133.5L170.5 128.4" stroke-width=".6"/><path d="M166.0 128.8L160.9 128.2M166.0 128.8L167.0 123.7" stroke-width=".6"/><path d="M162.6 124.0L157.4 123.4M162.6 124.0L163.6 119.0" stroke-width=".6"/><path d="M180.3 111.0C180.9 103.2 188.8 97.5 197.1 97.5C195.1 105.3 188.1 112.1 180.3 111.0Z"/><path d="M180.3 111.0Q189.0 104.6 195.4 98.8" stroke-width=".8"/><path d="M185.3 106.9L185.2 102.6M185.3 106.9L189.5 108.0" stroke-width=".6"/><path d="M188.7 104.2L188.6 99.9M188.7 104.2L192.9 105.3" stroke-width=".6"/><path d="M192.1 101.5L191.9 97.2M192.1 101.5L196.2 102.6" stroke-width=".6"/><path d="M182.6 79.8C175.7 79.8 170.5 73.2 170.2 65.9C177.2 67.2 183.4 73.0 182.6 79.8Z"/><path d="M182.6 79.8Q176.8 72.6 171.5 67.3" stroke-width=".8"/><path d="M178.9 75.7L175.1 76.0M178.9 75.7L179.7 71.9" stroke-width=".6"/><path d="M176.4 72.9L172.7 73.2M176.4 72.9L177.3 69.2" stroke-width=".6"/><path d="M174.0 70.1L170.2 70.5M174.0 70.1L174.8 66.4" stroke-width=".6"/><path d="M180.8 46.2C180.3 39.4 186.3 32.0 193.3 29.4C192.6 36.7 187.6 44.7 180.8 46.2Z"/><path d="M180.8 46.2Q187.4 38.0 192.1 31.1" stroke-width=".8"/><path d="M184.6 41.2L183.9 37.6M184.6 41.2L188.2 40.8" stroke-width=".6"/><path d="M187.1 37.8L186.4 34.2M187.1 37.8L190.7 37.4" stroke-width=".6"/><path d="M189.6 34.5L188.9 30.8M189.6 34.5L193.2 34.0" stroke-width=".6"/><path d="M180.0 40.0C175.4 36.4 174.8 28.7 177.6 23.2C181.7 27.7 183.4 35.2 180.0 40.0Z"/><path d="M180.0 40.0Q179.1 31.5 177.8 24.9" stroke-width=".8"/><path d="M179.3 35.0L176.6 33.3M179.3 35.0L181.4 32.6" stroke-width=".6"/><path d="M178.8 31.6L176.1 29.9M178.8 31.6L180.9 29.2" stroke-width=".6"/><path d="M178.3 28.2L175.7 26.5M178.3 28.2L180.4 25.9" stroke-width=".6"/></svg>